<svg width="501" height="128" viewBox="0 0 501 128" fill="none" xmlns="http://www.w3.org/2000/svg">
<path d="M478.261 0.377441H23.2835C10.9734 0.377441 0.994141 10.3868 0.994141 22.7341V104.412C0.994141 116.759 10.9734 126.769 23.2835 126.769H478.261C490.571 126.769 500.551 116.759 500.551 104.412V22.7341C500.551 10.3868 490.571 0.377441 478.261 0.377441Z" fill="#2B2A29" stroke="#2B2A29" stroke-width="0.755906" stroke-miterlimit="22.9256"/>
<path fill-rule="evenodd" clip-rule="evenodd" d="M56.2988 92.1557L67.0795 79.8344C72.4892 83.3531 75.3839 81.0231 75.774 76.804L75.7736 32.686L92.0199 32.5869L92.2191 78.0955C90.2613 95.9824 72.4669 106.566 56.2988 92.1557Z" fill="#EBECEC" stroke="#EBECEC" stroke-width="0.755906" stroke-miterlimit="22.9256"/>
<path fill-rule="evenodd" clip-rule="evenodd" d="M93.9565 97.5484L116.214 33.1606L127.939 33.2601L150.395 97.7475L132.734 97.6235L129.753 87.6872L114.003 87.7367L117.356 73.2044L126.988 73.4754L121.752 58.6725L117.328 73.328L114.003 87.7367L110.699 97.7475L93.9565 97.5484Z" fill="#EBECEC" stroke="#EBECEC" stroke-width="0.755906" stroke-miterlimit="22.9256"/>
<path fill-rule="evenodd" clip-rule="evenodd" d="M209.291 41.1593L198.658 53.8283C184.466 42.4512 170.075 53.729 171.283 66.7955C172.012 78.4542 189.136 88.0262 199.105 74.9434L210.632 88.1589C194.336 107.502 157.074 101.308 154.292 66.0007C153.845 33.8724 190.759 19.531 209.291 41.1593Z" fill="#EBECEC" stroke="#EBECEC" stroke-width="0.755906" stroke-miterlimit="22.9256"/>
<path fill-rule="evenodd" clip-rule="evenodd" d="M379.886 41.2286L369.255 53.8976C355.062 42.5205 340.671 53.7982 341.879 66.8648C342.608 78.5235 359.732 88.0955 369.702 75.0127L381.228 88.2281C364.932 107.571 327.67 101.378 324.888 66.0699C324.441 33.942 361.355 19.6003 379.886 41.2286Z" fill="#C5D500" stroke="#C5D500" stroke-width="0.755906" stroke-miterlimit="22.9256"/>
<path fill-rule="evenodd" clip-rule="evenodd" d="M213.015 32.7636V48.8606H231.695L232.192 97.2514H248.885L248.289 48.861L267.367 48.96L266.945 32.6396L213.015 32.7636Z" fill="#C5D500" stroke="#C5D500" stroke-width="0.755906" stroke-miterlimit="22.9256"/>
<path fill-rule="evenodd" clip-rule="evenodd" d="M274.298 97.699L274.397 32.3174L316.726 32.5162L316.428 49.7062L290.494 49.3086L290.395 56.7611L301.921 56.6617L302.02 73.8517L290.419 73.7565L290.396 80.7826L316.031 80.6087L316.205 97.4511L274.298 97.699Z" fill="#C5D500" stroke="#C5D500" stroke-width="0.755906" stroke-miterlimit="22.9256"/>
<path fill-rule="evenodd" clip-rule="evenodd" d="M389.311 32.5913L405.309 32.7901L405.11 52.2652L425.976 62.202V32.9885L442.073 32.8891L442.372 97.7745L425.877 97.4763L425.976 79.6899L405.011 70.0517L405.806 97.8736L389.013 97.1781L389.311 32.5913Z" fill="#C5D500" stroke="#C5D500" stroke-width="0.755906" stroke-miterlimit="22.9256"/>
<path d="M36.465 12.0889H464.329C469.533 12.0889 474.263 14.216 477.689 17.6426C481.116 21.0691 483.243 25.7984 483.243 31.002V96.9808C483.243 102.185 481.116 106.914 477.689 110.34C474.263 113.767 469.533 115.894 464.329 115.894H36.465C31.261 115.894 26.5324 113.767 23.1059 110.34C19.6794 106.914 17.5522 102.185 17.5522 96.9808V31.002C17.5522 25.798 19.6794 21.0691 23.1059 17.6426C26.5324 14.216 31.261 12.0889 36.465 12.0889ZM464.329 17.7223H36.465C32.8159 17.7223 29.4963 19.2171 27.0884 21.625C24.6804 24.033 23.1853 27.3529 23.1853 31.002V96.9808C23.1853 100.63 24.6804 103.95 27.0884 106.358C29.4963 108.766 32.8163 110.261 36.465 110.261H464.329C467.979 110.261 471.299 108.766 473.706 106.358C476.114 103.95 477.61 100.63 477.61 96.9808V31.002C477.61 27.3529 476.114 24.033 473.706 21.625C471.299 19.2171 467.979 17.7223 464.329 17.7223Z" fill="#EBECEC"/>
</svg>
